<?xml version="1.0" standalone="no"?>
<!DOCTYPE svg PUBLIC "-//W3C//DTD SVG 20010904//EN"
 "http://www.w3.org/TR/2001/REC-SVG-20010904/DTD/svg10.dtd">
<svg version="1.0" xmlns="http://www.w3.org/2000/svg"
 width="348.000000pt" height="177.000000pt" viewBox="0 0 348.000000 177.000000"
 preserveAspectRatio="xMidYMid meet">

<g transform="translate(0.000000,177.000000) scale(0.100000,-0.100000)"
fill="#000000" stroke="none">
<path d="M624 1610 c-151 -39 -268 -122 -374 -262 -35 -46 -78 -115 -96 -154
-187 -403 82 -801 487 -720 123 25 212 72 307 161 43 41 82 72 86 68 3 -3 6
-20 6 -36 0 -16 14 -89 31 -161 56 -237 24 -348 -116 -402 -104 -39 -195 28
-195 146 0 52 -6 58 -41 40 -48 -26 -64 -121 -29 -178 60 -97 228 -91 365 14
46 35 99 117 125 195 28 82 23 174 -19 316 -16 56 -33 129 -37 162 l-7 61 -33
-44 c-123 -161 -351 -262 -535 -236 -136 19 -272 107 -324 210 -28 55 -55 179
-55 252 0 212 171 414 400 473 46 12 93 16 160 13 82 -3 105 -8 155 -33 75
-38 110 -83 131 -166 20 -84 8 -157 -40 -226 -110 -161 -338 -205 -448 -87
-34 37 -48 74 -48 129 0 35 6 49 30 73 35 35 37 42 12 42 -24 0 -89 -55 -109
-93 -26 -52 -23 -134 9 -188 68 -116 226 -131 408 -39 203 104 317 358 235
526 -66 135 -249 195 -441 144z"/>
<path d="M1910 1493 c-72 -37 -110 -154 -110 -343 l0 -126 -35 -34 c-19 -19
-35 -38 -35 -42 0 -16 25 -7 51 18 l27 26 7 -74 c4 -40 7 -121 8 -181 1 -72 6
-106 13 -103 6 2 47 12 92 22 49 11 82 24 82 31 0 8 -10 11 -29 7 -38 -8 -81
31 -81 73 0 15 -5 89 -10 164 l-11 137 46 65 c73 105 108 190 109 264 1 50 -3
66 -19 82 -30 29 -65 34 -105 14z m54 -45 c25 -35 21 -141 -8 -209 -25 -62
-62 -119 -77 -119 -12 0 -12 184 1 251 17 91 52 123 84 77z"/>
<path d="M2306 1427 c-62 -61 -92 -128 -82 -182 4 -19 29 -80 57 -135 28 -55
47 -105 44 -110 -3 -6 -19 -10 -34 -10 -37 0 -91 -23 -129 -55 -81 -68 -59
-191 45 -252 92 -53 184 -23 243 80 51 90 46 121 -60 336 -60 121 -90 194 -90
217 0 50 28 111 64 139 24 19 27 25 13 25 -10 0 -42 -24 -71 -53z m64 -477
c34 -24 70 -95 70 -137 0 -17 -9 -42 -21 -57 -17 -21 -29 -26 -65 -26 -90 0
-153 48 -161 124 -12 102 91 157 177 96z"/>
<path d="M2696 1184 c-34 -34 -9 -78 41 -72 22 2 29 9 31 31 6 50 -38 75 -72
41z"/>
<path d="M2685 982 c-65 -27 -66 -28 -49 -69 13 -30 14 -49 4 -121 -6 -47 -15
-93 -20 -102 -5 -9 -5 -22 -1 -29 7 -10 15 -9 42 4 54 27 70 45 59 65 -6 11
-4 61 4 136 7 65 11 122 7 126 -3 3 -24 -1 -46 -10z"/>
<path d="M1493 945 c-67 -34 -142 -101 -159 -142 -19 -44 -17 -80 5 -130 25
-55 79 -83 157 -83 52 0 59 3 94 38 76 75 89 209 29 292 -16 22 -33 40 -38 40
-5 0 -15 2 -23 5 -7 3 -36 -6 -65 -20z m39 -55 c54 -42 77 -164 44 -229 -64
-123 -214 12 -171 154 26 87 75 116 127 75z"/>
<path d="M2950 914 c-66 -23 -105 -56 -118 -102 -25 -82 -10 -149 44 -191 34
-27 127 -29 179 -4 50 24 43 32 -17 21 -35 -7 -59 -6 -75 1 -26 12 -70 98 -56
111 4 4 63 15 131 25 120 18 155 31 114 42 -13 3 -23 16 -27 34 -4 15 -15 40
-26 54 -24 30 -78 33 -149 9z m77 -36 c27 -25 30 -64 6 -77 -20 -10 -133 -26
-133 -18 0 12 32 92 41 104 17 20 60 16 86 -9z"/>
<path d="M3255 746 c-53 -23 -60 -40 -65 -158 -5 -109 -6 -110 -38 -139 -20
-18 -43 -29 -62 -29 -35 0 -96 23 -122 47 -20 18 -34 12 -25 -11 8 -21 92 -62
143 -70 23 -4 60 -3 82 3 93 26 122 85 102 210 -11 68 -10 76 8 100 25 34 71
39 97 11 14 -16 16 -23 7 -32 -17 -17 -15 -48 3 -55 22 -8 55 25 55 54 0 62
-108 103 -185 69z"/>
</g>
</svg>
